Coordinates
version=1
nRows=18
nColumns=33
inDegrees=yes

Units are S.I. units (second, meters, Newtons, ...)
Angles are in degrees.

endheader
time	ground_thorax_rot_x	ground_thorax_rot_y	ground_thorax_rot_z	ground_thorax_tx	ground_thorax_ty	ground_thorax_tz	clav_prot_r	clav_elev_r	scapula_abduction_r	scapula_elevation_r	scapula_upward_rot_r	scapula_winging_r	shoulder_elv_r	plane_of_elev_r	axial_rot_r	elbow_flexion_r	pro_sup_r	wrist_flex_r	wrist_dev_r	clav_prot_l	clav_elev_l	scapula_abduction_l	scapula_elevation_l	scapula_upward_rot_l	scapula_winging_l	shoulder_elv_l	plane_of_elev_l	axial_rot_l	elbow_flexion_l	pro_sup_l	wrist_flex_l	wrist_dev_l	
2.6400	1.734894	6.615843	-0.095682	-0.183691	1.002193	0.014063	-17.565435	-7.731249	-21.090525	-4.697633	11.206524	1.285442	62.595426	-54.135362	61.681810	79.130658	29.414606	35.357007	-21.862132	-4.140755	-1.691282	4.366236	-5.189568	-2.105291	-0.855660	46.472759	-48.019726	-23.053507	78.187410	22.899983	-17.445959	-25.000000	
2.6500	1.737240	6.618982	-0.090086	-0.183636	1.002007	0.014079	-17.571306	-7.744169	-21.103257	-4.706466	11.196652	1.291914	62.589374	-54.135849	61.676336	79.131335	29.405199	35.370346	-21.880564	-4.135874	-1.697640	4.359299	-5.186641	-2.113894	-0.856809	46.459756	-48.014445	-23.044019	78.184823	22.896894	-17.453772	-25.000000	
2.6600	1.739757	6.624750	-0.085217	-0.183584	1.001841	0.014100	-17.580649	-7.763330	-21.123511	-4.719428	11.181781	1.302471	62.582219	-54.136207	61.666454	79.131087	29.389560	35.392341	-21.911334	-4.127841	-1.706657	4.347424	-5.182811	-2.126103	-0.857851	46.441609	-48.006191	-23.026738	78.180361	22.891683	-17.467383	-25.000000	
2.6700	1.741813	6.636408	-0.084657	-0.183536	1.001703	0.014131	-17.596716	-7.794346	-21.158315	-4.740193	11.157054	1.320607	62.574597	-54.135597	61.647170	79.127771	29.360983	35.432317	-21.967896	-4.113067	-1.720319	4.324598	-5.177427	-2.144086	-0.857997	46.415399	-47.991626	-22.992220	78.171946	22.881976	-17.493499	-25.000000	
2.6800	1.741875	6.656450	-0.092936	-0.183484	1.001586	0.014168	-17.620767	-7.838922	-21.210453	-4.769778	11.120784	1.347468	62.568923	-54.132849	61.615400	79.119293	29.315874	35.495201	-22.057537	-4.089607	-1.738543	4.287026	-5.170315	-2.167258	-0.856391	46.382320	-47.969005	-22.934226	78.158334	22.866413	-17.536128	-25.000000	
2.6900	1.737706	6.698977	-0.125636	-0.183428	1.001529	0.014211	-17.667001	-7.922135	-21.311161	-4.824594	11.051334	1.399021	62.567435	-54.124262	61.549515	79.096406	29.224567	35.622397	-22.239817	-4.041452	-1.769489	4.207722	-5.158065	-2.205569	-0.850113	46.328980	-47.923530	-22.811373	78.130442	22.834449	-17.624701	-25.000000	
2.7000	1.728803	6.760390	-0.178779	-0.183362	1.001513	0.014255	-17.730356	-8.034310	-21.449391	-4.898266	10.956616	1.469184	62.570788	-54.110606	61.456559	79.062442	29.097072	35.799863	-22.494467	-3.974178	-1.809610	4.095654	-5.141838	-2.254184	-0.839854	46.262213	-47.860263	-22.636472	78.091480	22.789606	-17.749668	-25.000000	
2.7100	1.715663	6.837162	-0.246502	-0.183289	1.001535	0.014300	-17.806947	-8.168089	-21.616571	-4.985961	10.842760	1.553321	62.577776	-54.093225	61.342940	79.021626	28.942027	36.015425	-22.803717	-3.892731	-1.856733	3.959209	-5.122382	-2.310363	-0.826672	46.185717	-47.783570	-22.421488	78.044549	22.735022	-17.902392	-24.999999	
2.7200	1.699767	6.913132	-0.303689	-0.183216	1.001555	0.014340	-17.878606	-8.289616	-21.772693	-5.065464	10.738474	1.629856	62.584314	-54.077755	61.237398	78.990701	28.798956	36.213722	-23.087157	-3.819542	-1.900618	3.836255	-5.103454	-2.360893	-0.815243	46.117149	-47.713525	-22.220657	78.002640	22.684892	-18.043734	-24.999999	
2.7300	1.682215	6.986414	-0.346124	-0.183144	1.001579	0.014378	-17.944562	-8.396164	-21.915568	-5.134986	10.645772	1.697254	62.588678	-54.065807	61.142585	78.973713	28.671315	36.389240	-23.336674	-3.757028	-1.940997	3.731186	-5.085180	-2.405653	-0.806354	46.056812	-47.651977	-22.039292	77.967967	22.640659	-18.169720	-24.999999	
2.7400	1.663049	7.047355	-0.354298	-0.183069	1.001567	0.014416	-17.994330	-8.460729	-22.021266	-5.176274	10.585218	1.739007	62.588585	-54.064989	61.077696	78.989404	28.586912	36.501787	-23.493325	-3.723376	-1.970093	3.674448	-5.070104	-2.433797	-0.803780	46.019956	-47.614529	-21.912410	77.951636	22.612518	-18.253022	-24.999998	
2.7500	1.643174	7.097971	-0.337033	-0.182979	1.001516	0.014459	-18.031322	-8.490519	-22.097010	-5.194097	10.551230	1.759681	62.586169	-54.072907	61.036174	79.034750	28.536873	36.561358	-23.572692	-3.712997	-1.989789	3.656582	-5.057927	-2.448144	-0.805920	46.004437	-47.595956	-21.829453	77.953153	22.597762	-18.301197	-24.999996	
2.7600	1.621331	7.145499	-0.299927	-0.182884	1.001428	0.014500	-18.061301	-8.492730	-22.154821	-5.193275	10.537618	1.763660	62.583007	-54.087727	61.008682	79.119085	28.510088	36.578379	-23.590004	-3.721129	-2.003294	3.669629	-5.047037	-2.452245	-0.812308	46.008657	-47.589689	-21.776342	77.977799	22.593833	-18.323442	-24.999994	
2.7700	1.598177	7.200803	-0.268277	-0.182787	1.001339	0.014537	-18.095978	-8.498381	-22.221018	-5.194958	10.521257	1.769834	62.583895	-54.098121	60.972089	79.224287	28.472749	36.594452	-23.608727	-3.725698	-2.019568	3.676541	-5.034714	-2.458944	-0.817970	46.019090	-47.576318	-21.713438	78.017063	22.589741	-18.349272	-24.999989	
2.7800	1.573642	7.268075	-0.248092	-0.182697	1.001240	0.014567	-18.138797	-8.511510	-22.303210	-5.201757	10.498235	1.780737	62.591687	-54.101118	60.919170	79.363624	28.415681	36.607516	-23.629416	-3.722390	-2.041336	3.670857	-5.020398	-2.473273	-0.822846	46.039512	-47.551235	-21.634860	78.080728	22.585870	-18.380939	-24.999980	
2.7900	1.548685	7.342793	-0.240938	-0.182617	1.001140	0.014592	-18.183352	-8.533988	-22.390673	-5.214596	10.467749	1.797305	62.606799	-54.089170	60.857029	79.521927	28.338861	36.607620	-23.643175	-3.707658	-2.068651	3.646882	-5.004928	-2.496787	-0.825683	46.073158	-47.514727	-21.548585	78.163857	22.583199	-18.410344	-24.999964	
2.8000	1.520666	7.428004	-0.244012	-0.182557	1.001045	0.014609	-18.233332	-8.567243	-22.491504	-5.233965	10.426453	1.820741	62.630494	-54.060935	60.782982	79.709351	28.233838	36.588469	-23.645722	-3.679633	-2.102497	3.602673	-4.988816	-2.533480	-0.827236	46.124167	-47.467928	-21.449200	78.272295	22.581635	-18.434971	-24.999936	
2.8100	1.487736	7.520111	-0.247078	-0.182516	1.000971	0.014620	-18.285807	-8.610391	-22.602792	-5.257541	10.370578	1.851583	62.664723	-54.009491	60.709751	79.907260	28.095702	36.530839	-23.618783	-3.635261	-2.141893	3.535028	-4.975120	-2.588039	-0.827186	46.197985	-47.417126	-21.341396	78.397166	22.581543	-18.439222	-24.999886	
